<svg height="675" viewBox="0 0 578 675" width="578" xmlns="http://www.w3.org/2000/svg"><path d="m694 112.5h-370a13.01442 13.01442 0 0 0 -13 13v500a13.01474 13.01474 0 0 0 13 13h370a13.01505 13.01505 0 0 0 13-13v-500a13.01474 13.01474 0 0 0 -13-13z" fill="#f2f2f2" transform="translate(-311 -112.5)"/><path d="m335.42966 128.5a9.08459 9.08459 0 0 0 -8.92966 9.21212v475.57576a9.08459 9.08459 0 0 0 8.92966 9.21212h347.14068a9.08459 9.08459 0 0 0 8.92966-9.21212v-475.57576a9.08459 9.08459 0 0 0 -8.92966-9.21212z" fill="#fff" transform="translate(-311 -112.5)"/><path d="m353.5 150.5c-3.30859 0-6 3.03744-6 6.77143v65.45714c0 3.734 2.69141 6.77143 6 6.77143h311c3.30859 0 6-3.03744 6-6.77143v-65.45714c0-3.734-2.69141-6.77143-6-6.77143z" fill="#e6e6e6" transform="translate(-311 -112.5)"/><path d="m353.5 261.25a6.09464 6.09464 0 0 0 -6 6.1723v139.9054a6.09464 6.09464 0 0 0 6 6.1723h311a6.09464 6.09464 0 0 0 6-6.1723v-139.9054a6.09464 6.09464 0 0 0 -6-6.1723z" fill="#e6e6e6" transform="translate(-311 -112.5)"/><path d="m75 47.25h246v14h-246z" fill="#fff"/><path d="m75.5 76.75h246v6.5h-246z" fill="#fff"/><path d="m75.5 88.25h246v6.5h-246z" fill="#fff"/><path d="m75.5 99.75h246v6.5h-246z" fill="#fff"/><path d="m532.1626 413.75h113.21094a3.6445 3.6445 0 0 0 2.57714-6.22119l-72.45654-72.45654a3.64844 3.64844 0 0 0 -5.15381 0l-18.01806 18.01806a7.64285 7.64285 0 0 1 -10.81006 0l-56.43506-56.43506a3.64905 3.64905 0 0 0 -5.1543 0l-110.37353 110.37354a3.6445 3.6445 0 0 0 2.57714 6.22119h160.18116z" fill="#fff" transform="translate(-311 -112.5)"/><circle cx="86.5" cy="181.75" fill="#fff" r="14"/><path d="m353.5 446.25a6.09464 6.09464 0 0 0 -6 6.1723v139.9054a6.09464 6.09464 0 0 0 6 6.1723h311a6.09464 6.09464 0 0 0 6-6.1723v-139.9054a6.09464 6.09464 0 0 0 -6-6.1723z" fill="#e6e6e6" transform="translate(-311 -112.5)"/><path d="m532.1626 598.75h113.21094a3.64489 3.64489 0 0 0 2.57714-6.22168l-72.45654-72.456a3.6502 3.6502 0 0 0 -5.15381 0l-18.01806 18.01757a7.64107 7.64107 0 0 1 -10.81055 0l-56.43457-56.43457a3.65082 3.65082 0 0 0 -5.1543 0l-110.37353 110.373a3.64489 3.64489 0 0 0 2.57714 6.22168h160.18116z" fill="#fff" transform="translate(-311 -112.5)"/><circle cx="86.5" cy="366.75" fill="#fff" r="14"/><g transform="translate(-311 -112.5)"><path d="m454 227.5a9.01047 9.01047 0 0 0 -9 9v500a9.01016 9.01016 0 0 0 9 9h370a9.00984 9.00984 0 0 0 9-9v-500a9.01016 9.01016 0 0 0 -9-9z" fill="#e6e6e6"/><path d="m464.92966 241.5a9.08459 9.08459 0 0 0 -8.92966 9.21212v475.57576a9.08459 9.08459 0 0 0 8.92966 9.21212h347.14068a9.08459 9.08459 0 0 0 8.92966-9.21212v-475.57576a9.08459 9.08459 0 0 0 -8.92966-9.21212z" fill="#fff"/><path d="m519.25 310.68262a4.00458 4.00458 0 0 0 -4 4v18.35888a4.00458 4.00458 0 0 0 4 4h236a4.00427 4.00427 0 0 0 4-4v-18.35888a4.00427 4.00427 0 0 0 -4-4z" fill="#74b757"/><path d="m517.75 371.439a1.00131 1.00131 0 0 0 -1 1v7.167a1.0013 1.0013 0 0 0 1 1h240a1.001 1.001 0 0 0 1-1v-7.167a1.001 1.001 0 0 0 -1-1z" fill="#ccc"/><path d="m517.75 394.73389a1.0013 1.0013 0 0 0 -1 1v7.167a1.0013 1.0013 0 0 0 1 1h240a1.001 1.001 0 0 0 1-1v-7.167a1.001 1.001 0 0 0 -1-1z" fill="#ccc"/><path d="m517.75 418.02881a1.0013 1.0013 0 0 0 -1 1v7.1665a1.0013 1.0013 0 0 0 1 1h240a1.001 1.001 0 0 0 1-1v-7.1665a1.001 1.001 0 0 0 -1-1z" fill="#ccc"/><path d="m517.25 464.561a1.0013 1.0013 0 0 0 -1 1v7.1665a1.0013 1.0013 0 0 0 1 1h240a1.001 1.001 0 0 0 1-1v-7.1665a1.001 1.001 0 0 0 -1-1z" fill="#ccc"/><path d="m517.25 487.856a1.0013 1.0013 0 0 0 -1 1v7.1665a1.0013 1.0013 0 0 0 1 1h240a1.001 1.001 0 0 0 1-1v-7.1665a1.001 1.001 0 0 0 -1-1z" fill="#ccc"/><path d="m517.25 511.15039a1.001 1.001 0 0 0 -1 1v7.167a1.001 1.001 0 0 0 1 1h240a1.00067 1.00067 0 0 0 1-1v-7.167a1.00067 1.00067 0 0 0 -1-1z" fill="#ccc"/><path d="m517.25 534.56055a1.001 1.001 0 0 0 -1 1v7.167a1.001 1.001 0 0 0 1 1h240a1.00067 1.00067 0 0 0 1-1v-7.167a1.00067 1.00067 0 0 0 -1-1z" fill="#ccc"/><path d="m517.25 557.85547a1.001 1.001 0 0 0 -1 1v7.167a1.001 1.001 0 0 0 1 1h240a1.00067 1.00067 0 0 0 1-1v-7.167a1.00067 1.00067 0 0 0 -1-1z" fill="#ccc"/><path d="m517.25 581.15039a1.001 1.001 0 0 0 -1 1v7.167a1.001 1.001 0 0 0 1 1h240a1.00067 1.00067 0 0 0 1-1v-7.167a1.00067 1.00067 0 0 0 -1-1z" fill="#ccc"/><path d="m517.25 604.56055a1.001 1.001 0 0 0 -1 1v7.167a1.001 1.001 0 0 0 1 1h240a1.00067 1.00067 0 0 0 1-1v-7.167a1.00067 1.00067 0 0 0 -1-1z" fill="#ccc"/><path d="m517.25 627.85547a1.001 1.001 0 0 0 -1 1v7.167a1.001 1.001 0 0 0 1 1h240a1.00067 1.00067 0 0 0 1-1v-7.167a1.00067 1.00067 0 0 0 -1-1z" fill="#ccc"/><path d="m517.25 651.15039a1.001 1.001 0 0 0 -1 1v7.167a1.001 1.001 0 0 0 1 1h240a1.00067 1.00067 0 0 0 1-1v-7.167a1.00067 1.00067 0 0 0 -1-1z" fill="#ccc"/></g><circle cx="505" cy="602" fill="#74b757" r="73"/><path d="m498.044 632.815-21.85-28.092 12.706-9.884 10.346 13.302 34.949-36.893 11.687 11.072z" fill="#fff"/></svg>